<!DOCTYPE svg PUBLIC "-//W3C//DTD SVG 1.1//EN" "http://www.w3.org/Graphics/SVG/1.1/DTD/svg11.dtd">
<!-- Uploaded to: SVG Repo, www.svgrepo.com, Transformed by: SVG Repo Mixer Tools -->
<svg width="800px" height="800px" viewBox="-4.8 -4.8 57.60 57.60" xmlns="http://www.w3.org/2000/svg" fill="#ffffff" stroke="#ffffff" transform="matrix(1, 0, 0, -1, 0, 0)rotate(0)">
<g id="SVGRepo_bgCarrier" stroke-width="0">
<rect x="-4.8" y="-4.8" width="57.60" height="57.60" rx="28.8" fill="#e5cccc" strokewidth="0"/>
</g>
<g id="SVGRepo_tracerCarrier" stroke-linecap="round" stroke-linejoin="round"/>
<g id="SVGRepo_iconCarrier">
<defs>
<style>.a{fill:none;stroke:#000000;stroke-linecap:round;stroke-linejoin:round;}</style>
</defs>
<path class="a" d="M29.2737,36.6443a3.6864,3.6864,0,0,1-3.1826-1.8183l-10.54-17.9087a3.6889,3.6889,0,0,1,6.3581-3.7427l10.54,17.9088a3.69,3.69,0,0,1-3.1755,5.5609Z"/>
<path class="a" d="M29.27,25.6819l7.3613-12.5073A3.6889,3.6889,0,0,1,42.99,16.9173L32.4492,34.826"/>
<path class="a" d="M18.73,22.3187,11.3686,34.826a3.6889,3.6889,0,0,1-6.3581-3.7426l10.54-17.9088"/>
</g>
</svg>